<svg xmlns="http://www.w3.org/2000/svg" viewBox="0 0 474.99 104.94"><defs><style>.cls-1{fill:#fff;}</style></defs><title>Asset 1</title><g id="Layer_2" data-name="Layer 2"><g id="Layer_2-2" data-name="Layer 2"><path class="cls-1" d="M21.61,103.92l6.64-37.63c.88-5-1.48-6.62-4.27-6.62H18.38l-7.8,44.24H0L18.14,1H37.4C44.45,1,49.32,6.76,48,14l-5.6,31.75s-1,8.08-5.43,9.11c3.75,2.06,2.11,9.7,2.11,9.7l-6.95,39.39Zm4.12-54.24c2.79,0,5.65-1.18,6.48-5.88l4.87-27.63c.67-3.82-1.71-5.29-4.5-5.29H27l-6.84,38.8Z"/><path class="cls-1" d="M94.13,91.86c-1.24,7.06-7.91,12.35-14.84,12.49l0,.15H71.18c-7.2,0-12.12-5.44-10.85-12.64L75.83,4A4,4,0,0,1,79.43,1h7.5L71.25,90c-.54,3.09,1.37,5.59,4.45,5.59h1.62A7,7,0,0,0,83.89,90L99.57,1h10.58Z"/><path class="cls-1" d="M150.8,103.92h-4.85c-5.73,0-5.81-4.56-5.89-6.61l-2.35-50.85-10.13,57.47H117L135.13,1H140c5.88,0,6.41,2.79,6.49,5.73l1.44,53.5L158.36,1h10.58Z"/><path class="cls-1" d="M308,8.67c-.82,1.32-2.7,2.79-6.08,2.79h-8.23a3.39,3.39,0,0,0-3.09,2.5l-15.86,90h-7.5c-2.5,0-2.68-1.47-2.55-2.21l15.91-90.25H265.79l1.27-7.2A4.06,4.06,0,0,1,270.86,1h42Z"/><path class="cls-1" d="M348.06,0a10.78,10.78,0,0,1,10.48,13.08L344.62,92a16.51,16.51,0,0,1-15.07,12.93h-8.08c-7.2,0-12-5.88-10.95-12.93l13.92-78.93A16.36,16.36,0,0,1,340,0Zm-20.4,95.68a7,7,0,0,0,6.6-5.73l13.22-75c.57-3.23-1.49-5.73-4.57-5.73h-1.62a7.25,7.25,0,0,0-6.6,5.73L321.47,90A4.73,4.73,0,0,0,326,95.68Z"/><path class="cls-1" d="M403.29,91.86c-1.24,7.06-7.91,12.35-14.84,12.49l0,.15h-8.08c-7.2,0-12.12-5.44-10.85-12.64L385,4A4,4,0,0,1,388.59,1h7.5L380.4,90c-.54,3.09,1.37,5.59,4.45,5.59h1.62A7,7,0,0,0,393,90L408.72,1h10.58Z"/><path class="cls-1" d="M448.34,103.92,455,66.29c.88-5-1.48-6.61-4.27-6.61h-5.58l-7.8,44.24H426.74L444.88,1h19.25c7.05,0,11.92,5.73,10.65,12.93l-5.6,31.75s-1,8.08-5.43,9.11c3.75,2.06,2.11,9.7,2.11,9.7l-6.95,39.39Zm4.12-54.24c2.79,0,5.65-1.18,6.47-5.88l4.87-27.63c.67-3.82-1.71-5.29-4.51-5.29h-5.58l-6.84,38.8Z"/><path class="cls-1" d="M210,87.5a1.9,1.9,0,0,0,1.56.75,2.75,2.75,0,0,0,1.82-.75c.19-.17,30.67-27.05,33.51-43.15,2.68-15.22-7.51-27.59-22.73-27.59s-29.78,12.38-32.46,27.59C189.19,58.9,209.91,87.32,210,87.5ZM223.4,21.34c12.69,0,21.19,10.32,19,23-1.75,9.93-20.47,29.38-29.74,38.16-6.17-8.78-18-28.23-16.28-38.16C198.58,31.66,210.72,21.34,223.4,21.34Z"/><path class="cls-1" d="M243,53.91c4.05,2.76,6.52,5.51,5.93,7.27-1.11,3.34-11.71,2.94-25.26-.56l-3.51-1c-1.94-.56-3.91-1.17-5.95-1.86-17.8-5.94-31.13-14.08-29.76-18.17.59-1.76,4.48-2.43,9.37-2.21,0,0,.33-.74.43-.89-8.08-.78-14.13.13-15.06,2.91-1.74,5.21,13.43,15,33.9,21.8,1.93.65,3.85,1.25,5.73,1.79l3.51,1c16.38,4.31,29.47,4.57,30.95.15.93-2.78-2.88-6.81-9.83-11C243.38,53.28,243,53.9,243,53.91Z"/></g></g></svg>