<?xml version="1.0" encoding="utf-8"?>
<!-- Generator: Adobe Illustrator 16.0.0, SVG Export Plug-In . SVG Version: 6.00 Build 0)  -->
<!DOCTYPE svg PUBLIC "-//W3C//DTD SVG 1.1//EN" "http://www.w3.org/Graphics/SVG/1.1/DTD/svg11.dtd">
<svg version="1.1" id="Layer_1" xmlns="http://www.w3.org/2000/svg" xmlns:xlink="http://www.w3.org/1999/xlink" x="0px" y="0px"
	 width="45px" height="45px" viewBox="0 0 45 45" enable-background="new 0 0 45 45" xml:space="preserve">
<g>
	<linearGradient id="SVGID_1_" gradientUnits="userSpaceOnUse" x1="9.9204" y1="-0.9751" x2="28.8952" y2="50.9559">
		<stop  offset="0" style="stop-color:#FA6100"/>
		<stop  offset="1" style="stop-color:#D92733"/>
	</linearGradient>
	<path fill="url(#SVGID_1_)" d="M23.369,29.028c-1.096-0.275-2.19-0.823-3.287-1.097c-3.315-1.132-6.387-2.387-9.097-3.676
		c1.856,5.786,6.257,12.8,8.823,16.549c2.583-2.455,6.379-6.311,9.792-10.303c-1.299-0.265-2.646-0.569-4.039-0.928L23.369,29.028z"
		/>
	<linearGradient id="SVGID_2_" gradientUnits="userSpaceOnUse" x1="16.2583" y1="-3.291" x2="35.2332" y2="48.6402">
		<stop  offset="0" style="stop-color:#FA6100"/>
		<stop  offset="1" style="stop-color:#D92733"/>
	</linearGradient>
	<path fill="url(#SVGID_2_)" d="M26.108,4.646c-7.395,0-14.52,6.027-15.889,13.696c-0.187,0.981-0.12,2.14,0.114,3.397
		c2.869,1.463,6.412,2.945,10.297,4.274c1.369,0.274,2.466,0.819,3.56,1.095l2.466,0.823c1.515,0.365,2.965,0.668,4.329,0.911
		c3.215-3.936,5.847-7.835,6.354-10.5C38.71,10.673,33.504,4.646,26.108,4.646z"/>
	<path fill="#1C1C1C" d="M38.178,23.006c0.941-1.742,1.647-3.422,1.906-4.938c1.644-9.04-4.383-16.161-13.424-16.161
		c-7.405,0-14.438,4.967-17.644,11.582c-4.543-0.5-8.389-0.047-8.926,1.566c-0.666,1.832,2.428,4.678,7.653,7.55
		c1.833,8.99,10.468,20.938,10.698,20.938c0.276,0.275,0.549,0.549,0.822,0.549c0.274,0,0.823-0.273,1.095-0.549
		c0,0,6.594-5.807,12.183-12.515c6.136,0.945,10.563,0.574,11.375-1.455C44.467,27.934,42.276,25.469,38.178,23.006z M10.225,18.342
		c1.368-7.669,8.493-13.696,15.888-13.696c7.397,0,12.602,6.027,11.231,13.696c-0.506,2.665-3.14,6.565-6.354,10.5
		c-1.364-0.243-2.815-0.546-4.329-0.911l-2.465-0.823c-1.094-0.275-2.191-0.82-3.561-1.095c-3.885-1.329-7.428-2.812-10.297-4.274
		C10.104,20.482,10.037,19.324,10.225,18.342z M3.104,15.33c0.263-1.062,3.032-1.335,5.696-1.351
		c-0.591,1.312-1.05,2.681-1.313,4.089c-0.1,0.637-0.111,1.324-0.077,2.036C4.388,18.247,2.703,16.53,3.104,15.33z M19.812,40.805
		c-2.565-3.749-6.966-10.763-8.823-16.549c2.711,1.289,5.783,2.544,9.098,3.676c1.097,0.273,2.191,0.821,3.286,1.097l2.191,0.546
		c1.394,0.358,2.743,0.663,4.04,0.928C26.193,34.494,22.396,38.35,19.812,40.805z M41.455,28.205
		c-0.364,1.273-3.271,1.574-7.503,1.076c1.445-1.841,2.77-3.708,3.821-5.525C40.172,25.379,41.724,27.126,41.455,28.205z"/>
</g>
</svg>
