<?xml version="1.0" encoding="utf-8"?>
<!-- Generator: Adobe Illustrator 16.0.0, SVG Export Plug-In . SVG Version: 6.00 Build 0)  -->
<!DOCTYPE svg PUBLIC "-//W3C//DTD SVG 1.1//EN" "http://www.w3.org/Graphics/SVG/1.1/DTD/svg11.dtd">
<svg version="1.1" id="Layer_1" xmlns="http://www.w3.org/2000/svg" xmlns:xlink="http://www.w3.org/1999/xlink" x="0px" y="0px"
	 width="30px" height="30px" viewBox="945 525 30 30" enable-background="new 945 525 30 30" xml:space="preserve">
<linearGradient id="SVGID_1_" gradientUnits="userSpaceOnUse" x1="-0.0669" y1="1073.7959" x2="-0.0669" y2="1073.0603" gradientTransform="matrix(43.2 0 0 -43.2 962.9 46912.1016)">
	<stop  offset="0" style="stop-color:#00B2E9"/>
	<stop  offset="0.6847" style="stop-color:#007EE9"/>
	<stop  offset="1" style="stop-color:#5A3AD7"/>
</linearGradient>
<circle fill="url(#SVGID_1_)" cx="960" cy="540" r="15"/>
<g>
	<g>
		<path fill="#FFFFFF" d="M958.44,549c0.12,0.12,0.24,0.24,0.36,0.24s0.36-0.12,0.48-0.24c0,0,7.92-6.96,8.64-11.16
			c0.721-3.96-1.92-7.08-5.88-7.08s-7.68,3.24-8.4,7.08C953.04,541.68,958.32,549,958.44,549z M961.8,531.96
			c3.24,0,5.521,2.64,4.92,6c-0.479,2.52-5.279,7.561-7.68,9.84c-1.56-2.279-4.68-7.32-4.2-9.84
			C955.44,534.6,958.56,531.96,961.8,531.96z"/>
	</g>
	<g>
		<path fill="#FFFFFF" d="M966.96,540.36c1.08,0.72,1.681,1.44,1.561,1.92c-0.24,0.84-3,0.72-6.48-0.12l-1.08-0.36
			c-0.48-0.12-0.96-0.359-1.56-0.479c-4.56-1.56-8.04-3.6-7.68-4.68c0.12-0.48,1.2-0.6,2.4-0.6l0.12-0.24
			c-2.04-0.24-3.6,0-3.84,0.72c-0.48,1.32,3.48,3.84,8.76,5.64c0.48,0.12,0.96,0.36,1.439,0.48l0.96,0.239
			c4.2,1.08,7.561,1.2,8.04,0c0.24-0.72-0.72-1.8-2.52-2.88C966.96,540.24,966.96,540.36,966.96,540.36z"/>
	</g>
</g>
</svg>
