<?xml version="1.0" encoding="utf-8"?>
<!-- Generator: Adobe Illustrator 16.0.0, SVG Export Plug-In . SVG Version: 6.00 Build 0)  -->
<!DOCTYPE svg PUBLIC "-//W3C//DTD SVG 1.1//EN" "http://www.w3.org/Graphics/SVG/1.1/DTD/svg11.dtd">
<svg version="1.1" id="Layer_1" xmlns="http://www.w3.org/2000/svg" xmlns:xlink="http://www.w3.org/1999/xlink" x="0px" y="0px"
	 width="168.553px" height="168.553px" viewBox="0 0 168.553 168.553" enable-background="new 0 0 168.553 168.553"
	 xml:space="preserve">
<g>
	<circle opacity="0.4" cx="84.276" cy="84.276" r="84.276"/>
	<g opacity="0.7">
		<g>
			<path fill="#FFFFFF" d="M84.276,79.042c-2.879,0-5.234,2.355-5.234,5.234s2.355,5.234,5.234,5.234s5.234-2.355,5.234-5.234
				S87.155,79.042,84.276,79.042z"/>
			<path fill="#FFFFFF" d="M150.575,80.351h-15.47c-1.919-24.979-21.925-44.984-46.903-46.903v-15.47
				c0-2.181-1.745-3.925-3.926-3.925s-3.926,1.745-3.926,3.925v15.47c-24.979,1.919-44.984,21.925-46.903,46.903h-15.47
				c-2.181,0-3.925,1.745-3.925,3.926s1.745,3.926,3.925,3.926h15.47c1.919,24.979,21.925,44.984,46.903,46.903v15.47
				c0,2.181,1.745,3.926,3.926,3.926s3.926-1.745,3.926-3.926v-15.47c24.979-1.919,44.984-21.925,46.903-46.903h15.47
				c2.181,0,3.926-1.745,3.926-3.926S152.756,80.351,150.575,80.351z M84.276,127.399c-23.786,0-43.124-19.337-43.124-43.123
				S60.49,41.153,84.276,41.153s43.123,19.337,43.123,43.124S108.062,127.399,84.276,127.399z"/>
		</g>
	</g>
</g>
</svg>
