<?xml version="1.0" encoding="utf-8"?>
<!-- Generator: Adobe Illustrator 16.0.0, SVG Export Plug-In . SVG Version: 6.00 Build 0)  -->
<!DOCTYPE svg PUBLIC "-//W3C//DTD SVG 1.1//EN" "http://www.w3.org/Graphics/SVG/1.1/DTD/svg11.dtd">
<svg version="1.1" id="Layer_1" xmlns="http://www.w3.org/2000/svg" xmlns:xlink="http://www.w3.org/1999/xlink" x="0px" y="0px"
	 width="41.667px" height="41.666px" viewBox="-8.417 -8.25 41.667 41.666" enable-background="new -8.417 -8.25 41.667 41.666"
	 xml:space="preserve">
<title>Pin Sight_1</title>
<g id="Layer_2">
	<g id="Layer_1-2">
		<path fill="#00AD4D" d="M2.774,1.795c0,0,7.391-8.411,14.528-7.264C24.439-4.322,30.047,1.54,27.88,6.765
			c-2.166,5.225-11.852,19.244-11.852,19.244l-6.245,4.588c0,0-10.029-13.636-9.558-20.008C0.697,4.216,2.774,1.795,2.774,1.795z"/>
		<path d="M27.37,12.5c0.825-1.429,1.428-2.977,1.785-4.588c1.528-8.284-4.079-14.911-12.489-14.911
			C9.949-6.999,3.411-2.41,0.353,3.707c-4.206-0.51-7.647,0-8.156,1.402c-0.637,1.657,2.294,4.333,7.137,7.009
			c1.657,8.284,9.685,19.372,9.94,19.372c0.255,0.254,0.509,0.51,0.765,0.51c0.383-0.064,0.738-0.243,1.02-0.51
			c4.016-3.588,7.764-7.464,11.214-11.598c5.735,0.892,9.813,0.51,10.578-1.401C33.233,17.088,31.193,14.794,27.37,12.5z M1.5,8.167
			C2.774,1.158,9.401-4.45,16.155-4.45c6.755,0,11.636,5.608,10.361,12.617c-0.51,2.421-2.932,6.117-5.862,9.686
			c-1.274-0.255-2.549-0.51-3.95-0.892l-2.294-0.765c-1.021-0.256-2.04-0.765-3.314-1.021c-3.271-1.102-6.463-2.422-9.558-3.95
			C1.398,10.211,1.385,9.184,1.5,8.167z M-5,5.363c0.255-1.019,2.804-1.274,5.225-1.274c-0.557,1.227-0.984,2.507-1.274,3.823
			c-0.106,0.632-0.148,1.272-0.127,1.912C-3.853,8.167-5.344,6.51-5,5.363z M10.421,28.94C8,25.499,3.921,18.999,2.264,13.646
			c2.549,1.147,5.353,2.294,8.412,3.441c1.02,0.255,2.039,0.765,3.059,1.02l2.039,0.51c1.274,0.382,2.549,0.637,3.695,0.893
			C16.321,23.077,12.715,26.646,10.421,28.94z M30.429,17.343c-0.382,1.147-3.059,1.402-6.882,1.02
			c1.274-1.638,2.467-3.339,3.568-5.098C29.155,14.667,30.684,16.323,30.429,17.343z"/>
	</g>
</g>
</svg>
